<svg width="103" height="39" viewBox="0 0 103 39" fill="none" xmlns="http://www.w3.org/2000/svg">
<path d="M16.69 2.66228e-05C16.4868 0.000192843 16.2727 0.00036808 16.072 0.024317C13.7388 0.218945 11.5948 1.21007 10.0679 3.01567C8.40627 4.98063 8.00443 7.0509 8.0239 9.55245L3.57879 9.54566C3.37968 9.54549 3.17386 9.53979 2.96513 9.53401C2.38518 9.51795 1.78278 9.50127 1.23951 9.60081C0.911878 9.66086 0.625992 9.82022 0.395582 10.0601C-0.00782162 10.48 -0.017624 11.0105 0.00858911 11.5539C0.0499334 12.4107 0.123524 13.2687 0.197029 14.1257C0.237016 14.5919 0.277013 15.0582 0.311765 15.5237L1.04955 25.0568L1.40852 29.6605C1.42621 29.8878 1.44033 30.1173 1.45451 30.3477C1.50521 31.1716 1.55665 32.0076 1.77416 32.7958C2.14992 34.136 2.89463 35.3436 3.92344 36.2816C4.82256 37.098 5.90934 37.6805 7.08742 37.9768C8.08385 38.2173 9.24149 38.1901 10.3289 38.1645C10.6525 38.1569 10.97 38.1495 11.2751 38.1493L17.2592 38.1474L22.4855 38.1497C22.7711 38.1497 23.065 38.1567 23.3625 38.1638C24.3278 38.1867 25.334 38.2106 26.2362 38.0004C27.5052 37.705 28.7894 37.0083 29.7159 36.0897C30.5781 35.2345 31.2669 34.0926 31.5678 32.9128C31.7982 32.0102 31.856 31.0202 31.912 30.0599C31.9301 29.7503 31.948 29.4436 31.9714 29.1441L32.4619 22.8303L33.0736 15.0779C33.1032 14.695 33.1415 14.308 33.1798 13.9202C33.263 13.0796 33.3468 12.2327 33.3449 11.402C33.344 10.891 33.2358 10.4143 32.8697 10.0349C32.6177 9.77339 32.2058 9.6457 31.8572 9.58884C31.3348 9.50365 30.7618 9.51884 30.2076 9.53355C30.0027 9.53898 29.8003 9.54435 29.604 9.54455C28.206 9.54182 26.8076 9.54677 25.4096 9.5593L25.3495 9.56017C25.3823 6.88124 24.7859 4.58245 22.86 2.62318C21.2507 0.955759 19.0363 0.00970829 16.7192 0L16.69 2.66228e-05ZM25.1622 15.2806L25.2376 15.285C25.2396 15.2901 25.2414 15.2948 25.2432 15.2993C25.2442 15.3016 25.2451 15.3038 25.246 15.306C25.2493 15.314 25.2522 15.3209 25.2548 15.3269L25.258 15.3341C25.2718 15.3654 25.2743 15.3711 25.2736 15.4215C25.2496 18.7064 24.3703 22.9357 22.0389 25.3415C19.88 27.5693 16.5274 28.6625 13.47 28.7231C14.8941 26.0447 17.1825 23.5046 19.543 21.618C19.908 21.3265 20.2902 21.063 20.6726 20.7993C20.9188 20.6295 21.1651 20.4597 21.407 20.2823C21.6418 20.1099 21.958 19.8761 21.9913 19.5618C22.0218 19.2724 21.8679 19.0478 21.6867 18.841C21.4329 18.6939 21.247 18.6325 20.9571 18.7175C20.5456 18.8383 20.131 19.1428 19.7567 19.4176C19.6576 19.4903 19.5612 19.5611 19.4685 19.6258C16.4419 21.769 13.9269 24.5552 12.1038 27.7846C12.0423 25.1572 12.6407 22.9562 14.252 20.8427C16.6702 17.671 21.2988 15.807 25.1622 15.2806ZM1.66681 11.1911L31.6954 11.1907C31.5889 12.202 31.5198 13.2226 31.4509 14.2416C31.4125 14.8093 31.3741 15.377 31.3293 15.9421L30.5207 26.0743L30.2184 29.808C30.2049 29.9701 30.1926 30.133 30.1803 30.2963C30.1318 30.9405 30.0829 31.5905 29.9586 32.2212C29.831 32.8684 29.5832 33.431 29.2476 33.9955C29.1181 34.192 28.9776 34.381 28.8269 34.5618C27.9564 35.602 26.5274 36.3768 25.1701 36.4794C24.431 36.5352 23.6705 36.5213 22.9172 36.5074C22.5912 36.5014 22.2663 36.4954 21.9451 36.4951L15.7151 36.4933L10.7576 36.4956C10.5185 36.4957 10.2751 36.5007 10.0299 36.5058C9.27807 36.5214 8.50824 36.5373 7.78562 36.4129C6.83781 36.2473 5.95205 35.8299 5.22166 35.2039C4.34676 34.4661 3.71886 33.4782 3.42262 32.3728C3.21997 31.6401 3.16943 30.8595 3.11981 30.093C3.10735 29.9005 3.09494 29.7088 3.0802 29.519L2.78534 25.72L1.66681 11.1911ZM25.829 13.5201L25.8067 13.5225C21.2484 14.0498 16.0591 15.9247 13.1127 19.6171C11.219 21.9902 10.1843 25.0769 10.5261 28.1165C10.6011 28.784 10.7523 29.422 10.9701 30.0567C10.9455 30.1197 10.9154 30.1953 10.8812 30.2813C10.5071 31.2215 9.63758 33.4069 9.94 34.0533C10.0275 34.24 10.2056 34.3653 10.3988 34.4268C10.4784 34.4518 10.5586 34.4661 10.6414 34.4758C10.8968 34.4337 11.1329 34.381 11.2866 34.1527C11.4516 33.9069 11.6207 33.3167 11.7652 32.8119C11.8341 32.5714 11.8974 32.3502 11.9522 32.1948C12.1395 31.6628 12.3521 31.1396 12.5645 30.6171L12.567 30.6109C12.5918 30.5498 12.6167 30.4886 12.6415 30.4275C16.4003 30.4386 20.4149 29.262 23.1341 26.579C26.1751 23.5779 26.9412 18.7386 26.9472 14.6433C26.9476 14.3204 26.9254 13.9373 26.6892 13.6903C26.544 13.5384 26.3254 13.4926 26.1224 13.4971C26.0245 13.4993 25.9266 13.5097 25.829 13.5201ZM16.3245 1.64241C16.4701 1.6334 16.6162 1.62526 16.7618 1.62628C18.5472 1.63881 20.3349 2.43734 21.5896 3.69562C23.2978 5.40895 23.6473 7.22708 23.651 9.55259L17.1094 9.54903L9.74848 9.55819C9.69217 7.55925 10.0141 5.73349 11.3255 4.1551C12.5853 2.63881 14.3834 1.81582 16.3245 1.64241Z" fill="#030A06"/>
<path d="M25.2376 15.285L25.1622 15.2806C21.2988 15.807 16.6702 17.671 14.252 20.8427C12.6406 22.9562 12.0423 25.1572 12.1038 27.7846C13.9269 24.5552 16.4419 21.769 19.4685 19.6258C19.5612 19.5611 19.6576 19.4904 19.7567 19.4176C20.131 19.1428 20.5456 18.8383 20.9571 18.7175C21.247 18.6325 21.4328 18.6939 21.6867 18.841C21.8679 19.0478 22.0218 19.2724 21.9913 19.5618C21.958 19.8761 21.6418 20.1099 21.407 20.2823C21.1651 20.4597 20.9188 20.6296 20.6726 20.7993C20.2902 21.063 19.908 21.3265 19.543 21.618C17.1825 23.5046 14.8941 26.0447 13.47 28.7231C16.5274 28.6625 19.88 27.5693 22.0389 25.3415C24.3703 22.9357 25.2496 18.7064 25.2736 15.4215C25.2743 15.3711 25.2718 15.3654 25.258 15.3341C25.2547 15.3266 25.2507 15.3174 25.246 15.306C25.2434 15.2997 25.2406 15.2928 25.2376 15.285ZM25.8067 13.5225L25.829 13.5201C25.9266 13.5097 26.0245 13.4993 26.1224 13.4971C26.3254 13.4926 26.544 13.5384 26.6892 13.6903C26.9254 13.9373 26.9476 14.3204 26.9472 14.6433C26.9412 18.7386 26.1751 23.5779 23.1341 26.579C20.4149 29.262 16.4003 30.4386 12.6415 30.4275C12.6167 30.4886 12.5918 30.5498 12.567 30.611L12.5645 30.6171C12.3521 31.1396 12.1395 31.6628 11.9522 32.1948C11.8974 32.3503 11.8341 32.5714 11.7652 32.8119C11.6207 33.3167 11.4516 33.9069 11.2866 34.1527C11.1329 34.381 10.8968 34.4338 10.6414 34.4758C10.5586 34.4661 10.4784 34.4518 10.3988 34.4268C10.2056 34.3653 10.0275 34.24 9.93999 34.0533C9.63757 33.4069 10.5071 31.2215 10.8812 30.2813C10.9154 30.1953 10.9455 30.1197 10.9701 30.0567C10.7523 29.422 10.6011 28.784 10.5261 28.1165C10.1843 25.0769 11.2189 21.9902 13.1127 19.6171C16.0591 15.9247 21.2484 14.0498 25.8067 13.5225Z" fill="#030A06"/>
<path d="M25.8292 13.5201L25.8068 13.5225C21.2486 14.0498 16.0593 15.9247 13.1129 19.6171C11.2191 21.9902 10.1845 25.0769 10.5262 28.1165C10.6012 28.784 10.7524 29.422 10.9703 30.0567C10.9457 30.1197 10.9156 30.1953 10.8814 30.2813C10.5073 31.2215 9.63774 33.4069 9.94016 34.0533C10.0276 34.24 10.2058 34.3653 10.399 34.4268C10.4786 34.4518 10.5588 34.4661 10.6416 34.4758C10.897 34.4337 11.133 34.381 11.2867 34.1527C11.4518 33.9069 11.6207 33.317 11.7653 32.8122C11.8342 32.5716 11.8976 32.3503 11.9524 32.1948C12.1396 31.6628 12.3523 31.1396 12.5647 30.6171C12.5655 30.615 12.5663 30.613 12.5671 30.611C12.592 30.5498 12.6169 30.4886 12.6417 30.4275C16.4004 30.4386 20.415 29.262 23.1343 26.579C26.1753 23.5779 26.9413 18.7386 26.9473 14.6433C26.9478 14.3204 26.9256 13.9373 26.6894 13.6903C26.5442 13.5384 26.3255 13.4926 26.1226 13.4971C26.0247 13.4993 25.9267 13.5097 25.8292 13.5201ZM25.1624 15.2806L25.2377 15.285C25.2408 15.2928 25.2436 15.2997 25.2461 15.306C25.2509 15.3175 25.2548 15.3265 25.2582 15.3341C25.2719 15.3654 25.2745 15.3711 25.2738 15.4215C25.2498 18.7064 24.3705 22.9357 22.0391 25.3415C19.8802 27.5693 16.5276 28.6625 13.4702 28.7231C14.8942 26.0447 17.1826 23.5046 19.5431 21.618C19.9082 21.3265 20.2903 21.063 20.6727 20.7993C20.9189 20.6295 21.1652 20.4597 21.4071 20.2823C21.642 20.1099 21.9582 19.8761 21.9915 19.5618C22.022 19.2724 21.868 19.0478 21.6868 18.841C21.433 18.6939 21.2472 18.6325 20.9573 18.7175C20.5458 18.8383 20.1311 19.1428 19.7569 19.4176C19.6577 19.4904 19.5614 19.5611 19.4687 19.6258C16.442 21.769 13.9271 24.5552 12.104 27.7846C12.0425 25.1572 12.6408 22.9562 14.2522 20.8427C16.6704 17.671 21.2989 15.807 25.1624 15.2806Z" fill="#030A06"/>
<path d="M84.5218 24.6519C84.4078 21.4232 81.6984 18.8984 78.4702 19.0119C75.2409 19.1249 72.7152 21.8353 72.8292 25.064C72.9431 28.2933 75.6535 30.8185 78.8823 30.7045C82.111 30.59 84.6358 27.8802 84.5218 24.6519ZM78.6734 20.7671C79.6152 20.8053 80.3786 21.0317 81.0965 21.6676C81.9522 22.4248 82.4293 23.5188 82.4917 24.6519C82.5546 25.7861 82.1977 26.9358 81.4256 27.7806C80.72 28.5527 79.8401 28.8983 78.8091 28.9499C77.8683 28.9401 77.0921 28.7936 76.3499 28.1762C75.4828 27.4552 74.9928 26.3875 74.9005 25.2734C74.8051 24.115 75.1084 22.9174 75.8774 22.0287C76.6402 21.1477 77.5413 20.8445 78.6734 20.7671Z" fill="#030A06"/>
<path d="M68.2634 24.1676C67.8786 20.9569 64.9611 18.6684 61.7515 19.0594C58.5503 19.4493 56.2692 22.3572 56.653 25.5592C57.0368 28.7611 59.9405 31.0475 63.1431 30.67C66.3542 30.2909 68.6482 27.3778 68.2634 24.1676ZM61.9388 20.8145C62.8753 20.7382 63.7239 20.8367 64.5147 21.3809C65.4029 21.9915 65.9613 22.9349 66.146 23.9886C66.3556 25.1852 66.1586 26.4649 65.4386 27.4619C64.8085 28.3351 64.0209 28.7683 62.9719 28.9354C62.0135 28.9844 61.1669 28.9261 60.3599 28.3552C59.4894 27.7419 58.9029 26.8037 58.7329 25.7526C58.5373 24.5931 58.7716 23.2588 59.4638 22.2943C60.0721 21.4469 60.9213 20.977 61.9388 20.8145Z" fill="#030A06"/>
<path d="M96.7859 19.0047C96.757 19.0057 96.7286 19.0078 96.6998 19.0114C95.2272 19.1852 93.9011 19.898 92.9753 21.0668C91.919 22.4011 91.5564 24.0928 91.7648 25.766C91.9355 27.2354 92.6875 28.5754 93.8527 29.4878C95.2329 30.5601 96.9829 30.8325 98.6881 30.5993C99.6747 30.4642 101.158 29.9917 101.788 29.1706C101.966 28.9401 102.055 28.6585 102.014 28.3676C101.985 28.1633 101.896 27.9678 101.728 27.8425C101.534 27.6986 101.276 27.6806 101.047 27.7254C100.728 27.7876 100.442 27.9849 100.17 28.172C100.113 28.2115 100.057 28.2504 100.001 28.2876C98.8098 28.9065 97.4889 29.1974 96.1788 28.773C95.2468 28.4661 94.4768 27.7971 94.0435 26.9162C93.8176 26.4659 93.7052 25.9878 93.6051 25.4973H99.2255C99.4594 25.4976 99.7104 25.5056 99.9684 25.5139C100.635 25.5352 101.348 25.5581 101.936 25.4529C102.104 25.423 102.264 25.3333 102.386 25.2146C102.662 24.9454 102.711 24.5642 102.703 24.1965C102.671 22.7884 102.01 21.3994 100.986 20.4468C99.8032 19.3466 98.3765 18.933 96.7859 19.0047ZM96.9592 20.764C97.8123 20.6639 98.6726 20.8816 99.3756 21.3762C100.216 21.9735 100.657 22.8214 100.834 23.8195C100.122 23.8281 99.4083 23.8261 98.6951 23.8242C98.3387 23.8232 97.9822 23.8222 97.6261 23.8226L93.6732 23.8277C93.8542 23.2196 94.0641 22.6672 94.453 22.1576C95.0797 21.337 95.9472 20.8971 96.9592 20.764Z" fill="#030A06"/>
<path d="M65.483 14.8249C67.5926 14.7749 69.7135 14.8213 71.8245 14.8177C73.0268 14.8156 74.5628 14.7182 75.73 14.8383C75.9177 14.8579 76.0673 14.9111 76.2102 15.0359C76.4134 15.2133 76.5485 15.481 76.5558 15.7523C76.5619 15.9973 76.4119 16.2784 76.2349 16.4429C76.0998 16.5677 75.9389 16.6178 75.7609 16.6466C75.2751 16.725 74.7387 16.6791 74.2456 16.6786L71.6265 16.674L71.6255 26.3943C71.6291 27.2133 71.7327 29 71.6095 29.6968C71.5708 29.9155 71.4914 30.1337 71.3407 30.3013C71.1788 30.4813 70.9555 30.5721 70.7151 30.5772C70.4634 30.5829 70.2179 30.5277 70.0363 30.3446C69.8228 30.1306 69.7444 29.8154 69.7181 29.523C69.6696 28.9835 69.714 28.4125 69.7202 27.8704C69.7295 27.0684 69.7222 26.2659 69.7217 25.4638L69.7279 16.6724C68.8568 16.6766 65.8416 16.8153 65.2242 16.5352C64.9987 16.4331 64.8571 16.2753 64.7753 16.0406C64.688 15.791 64.7278 15.5248 64.8539 15.2958C65.0016 15.0276 65.1986 14.9126 65.483 14.8249Z" fill="#030A06"/>
<path d="M51.6839 19.0125C52.4675 18.9681 53.2332 19.0182 53.994 19.2219C54.7974 19.437 56.0261 19.911 56.4415 20.6733C56.5557 20.8832 56.6153 21.1344 56.5347 21.3665C56.4523 21.6032 56.2274 21.7843 56.0009 21.8771C55.3401 22.1479 54.5128 21.2376 53.8912 21.0034C52.8804 20.6222 51.6647 20.6434 50.6813 21.1024C49.7777 21.5243 49.1281 22.3233 48.7917 23.2511C48.4013 24.3281 48.3683 25.7325 48.864 26.7821C49.3236 27.7549 50.1692 28.4347 51.1722 28.789C52.32 29.1949 53.5159 28.9788 54.5885 28.4646C54.9209 28.2846 55.2227 28.0448 55.6014 27.9664C55.7971 27.9261 55.9903 27.9473 56.1572 28.0628C56.3626 28.2052 56.5286 28.4868 56.5558 28.7354C56.5815 28.9685 56.4908 29.1831 56.3462 29.3621C55.7186 30.1398 54.3219 30.5308 53.3712 30.6474C51.7214 30.8495 50.003 30.5189 48.6826 29.4662C47.4415 28.4961 46.6518 27.0601 46.4973 25.4927C46.3338 23.9309 46.7918 22.3676 47.7722 21.1411C48.766 19.9192 50.122 19.1796 51.6839 19.0125Z" fill="#030A06"/>
<path d="M86.9209 16.0607C86.9539 16.0592 86.9864 16.0576 87.0189 16.0566C87.3113 16.0473 87.6053 16.1257 87.8122 16.3413C88.3052 16.8565 88.1092 18.5926 88.1036 19.3034C88.7751 19.3075 90.4091 19.0986 90.9125 19.5463C91.0946 19.7088 91.1688 19.9337 91.1693 20.1735C91.1704 20.4061 91.11 20.6289 90.9372 20.7929C90.4669 21.2386 88.7684 21.0632 88.1025 21.0591C88.1087 22.4868 87.9158 26.8874 88.3558 27.9705C89.067 29.7221 90.6087 28.1814 91.4881 28.5956C91.6763 28.6843 91.8306 28.8715 91.9002 29.0665C91.9992 29.344 91.911 29.5921 91.797 29.8469C91.7774 29.8685 91.7578 29.8897 91.7382 29.9108C91.207 30.4643 90.209 30.5973 89.4761 30.6076C88.6255 30.62 87.8214 30.4756 87.1932 29.8464C86.7393 29.3914 86.4572 28.7674 86.319 28.1464C86.1055 27.187 86.1937 26.125 86.1942 25.1466L86.1968 21.0606C85.681 21.0601 85.1647 21.0565 84.6489 21.0483C84.5638 20.9951 84.4808 20.9405 84.406 20.8729C84.2022 20.6893 84.1094 20.4154 84.1022 20.1456C84.096 19.9197 84.1651 19.6969 84.3338 19.5406C84.7505 19.1548 85.667 19.2931 86.1968 19.3024C86.1952 18.5591 86.0322 17.2264 86.3128 16.5724C86.4376 16.282 86.6414 16.1768 86.9209 16.0607Z" fill="#030A06"/>
<path fill-rule="evenodd" clip-rule="evenodd" d="M46.0002 15.7824C45.1115 15.695 40.7617 15.726 39.2526 15.7482C38.9752 15.7522 38.7178 15.7712 38.4918 15.7878C38.2995 15.802 38.1299 15.8145 37.9899 15.8147C37.9899 15.8147 37.3894 15.9556 37.1946 16.2262C37.0673 16.4033 37.0238 16.6281 36.9934 16.8397C36.8322 17.9634 36.7379 19.1099 36.6438 20.2525C36.5943 20.8539 36.5449 21.4542 36.4859 22.0496L35.9136 27.8259C35.8984 27.9802 35.872 28.191 35.842 28.4304C35.7451 29.204 35.6108 30.2757 35.6977 30.7023C35.7457 30.9387 35.871 31.1339 36.08 31.2572C36.2863 31.3788 36.52 31.4479 36.7548 31.4878L36.7569 31.4877C37.2422 31.4868 37.974 31.4943 38.7917 31.5028C40.4871 31.5203 44.798 31.5417 45.8004 31.4986C46.0003 31.4898 46.2121 31.4728 46.4006 31.4016C46.6536 31.3057 46.8615 31.1226 46.9616 30.8678C47.0624 30.6114 47.04 30.3242 46.9257 30.0766C46.8109 29.827 46.6556 29.6939 46.3952 29.6103H37.7306C37.8751 28.3346 38.0044 27.0574 38.1183 25.7787L38.2206 24.7392L38.2306 24.6362C38.2983 24.6371 38.3874 24.6384 38.4933 24.64C39.3758 24.6533 43.6712 24.6843 44.2185 24.6027C44.4193 24.5727 44.607 24.5222 44.7539 24.3742C44.9441 24.1823 45.0231 23.9172 45.0074 23.6511C44.9941 23.4251 44.8941 23.1791 44.7224 23.027C44.6078 22.9259 44.4658 22.8604 44.3142 22.8392C43.8027 22.7648 39.9839 22.785 39.0198 22.7973C38.7613 22.8007 38.5464 22.8034 38.4076 22.8036L38.8468 17.6216H43.5227C43.7611 17.6218 44.0094 17.6297 44.2616 17.6378C44.8718 17.6574 45.5043 17.6776 46.0718 17.5897C46.2736 17.5587 46.4467 17.4896 46.5932 17.3426C46.7724 17.1626 46.8705 16.8903 46.8568 16.6375C46.8427 16.3796 46.7039 16.1341 46.5022 15.9758C46.3485 15.8551 46.1928 15.801 46.0002 15.7824Z" fill="#030A06"/>
</svg>
